<mxfile host="app.diagrams.net" agent="Mozilla/5.0 (X11; Linux x86_64; rv:128.0) Gecko/20100101 Firefox/128.0" version="26.2.13">
  <diagram name="Page-1" id="67uoJDIDDvPvO4UoLkpO">
    <mxGraphModel dx="1775" dy="617" grid="1" gridSize="10" guides="1" tooltips="1" connect="1" arrows="1" fold="1" page="1" pageScale="1" pageWidth="827" pageHeight="1169" math="0" shadow="0">
      <root>
        <mxCell id="0" />
        <mxCell id="1" parent="0" />
        <mxCell id="-f6vMQ2dLlpIc5g9ewhE-2" value="Subject" style="whiteSpace=wrap;html=1;align=center;" parent="1" vertex="1">
          <mxGeometry x="-220" y="130" width="160" height="35" as="geometry" />
        </mxCell>
        <mxCell id="-f6vMQ2dLlpIc5g9ewhE-4" value="Abr" style="ellipse;whiteSpace=wrap;html=1;align=center;fontStyle=4;" parent="1" vertex="1">
          <mxGeometry x="-110" y="70" width="100" height="40" as="geometry" />
        </mxCell>
        <mxCell id="-f6vMQ2dLlpIc5g9ewhE-6" value="Name" style="ellipse;whiteSpace=wrap;html=1;align=center;" parent="1" vertex="1">
          <mxGeometry x="-280" y="70" width="100" height="40" as="geometry" />
        </mxCell>
        <mxCell id="-f6vMQ2dLlpIc5g9ewhE-8" value="" style="endArrow=none;html=1;rounded=0;" parent="1" source="-f6vMQ2dLlpIc5g9ewhE-2" target="-f6vMQ2dLlpIc5g9ewhE-4" edge="1">
          <mxGeometry relative="1" as="geometry">
            <mxPoint x="-220" y="250" as="sourcePoint" />
            <mxPoint x="-60" y="250" as="targetPoint" />
          </mxGeometry>
        </mxCell>
        <mxCell id="-f6vMQ2dLlpIc5g9ewhE-9" value="" style="endArrow=none;html=1;rounded=0;" parent="1" source="-f6vMQ2dLlpIc5g9ewhE-2" target="-f6vMQ2dLlpIc5g9ewhE-6" edge="1">
          <mxGeometry relative="1" as="geometry">
            <mxPoint x="-107" y="160" as="sourcePoint" />
            <mxPoint x="-53" y="118" as="targetPoint" />
          </mxGeometry>
        </mxCell>
        <mxCell id="-f6vMQ2dLlpIc5g9ewhE-10" value="Teacher" style="whiteSpace=wrap;html=1;align=center;" parent="1" vertex="1">
          <mxGeometry x="540" y="130" width="160" height="35" as="geometry" />
        </mxCell>
        <mxCell id="-f6vMQ2dLlpIc5g9ewhE-11" value="Id" style="ellipse;whiteSpace=wrap;html=1;align=center;fontStyle=4;" parent="1" vertex="1">
          <mxGeometry x="720" y="70" width="100" height="40" as="geometry" />
        </mxCell>
        <mxCell id="-f6vMQ2dLlpIc5g9ewhE-12" value="" style="endArrow=none;html=1;rounded=0;" parent="1" source="-f6vMQ2dLlpIc5g9ewhE-10" target="-f6vMQ2dLlpIc5g9ewhE-11" edge="1">
          <mxGeometry relative="1" as="geometry">
            <mxPoint x="558.5" y="122" as="sourcePoint" />
            <mxPoint x="601.5" y="80" as="targetPoint" />
          </mxGeometry>
        </mxCell>
        <mxCell id="-f6vMQ2dLlpIc5g9ewhE-13" value="LName" style="ellipse;whiteSpace=wrap;html=1;align=center;" parent="1" vertex="1">
          <mxGeometry x="590" y="70" width="100" height="40" as="geometry" />
        </mxCell>
        <mxCell id="-f6vMQ2dLlpIc5g9ewhE-14" value="" style="endArrow=none;html=1;rounded=0;" parent="1" source="-f6vMQ2dLlpIc5g9ewhE-10" target="-f6vMQ2dLlpIc5g9ewhE-13" edge="1">
          <mxGeometry relative="1" as="geometry">
            <mxPoint x="420" y="180" as="sourcePoint" />
            <mxPoint x="580" y="180" as="targetPoint" />
          </mxGeometry>
        </mxCell>
        <mxCell id="-f6vMQ2dLlpIc5g9ewhE-15" value="FName" style="ellipse;whiteSpace=wrap;html=1;align=center;" parent="1" vertex="1">
          <mxGeometry x="450" y="70" width="100" height="40" as="geometry" />
        </mxCell>
        <mxCell id="-f6vMQ2dLlpIc5g9ewhE-16" value="" style="endArrow=none;html=1;rounded=0;" parent="1" source="-f6vMQ2dLlpIc5g9ewhE-10" target="-f6vMQ2dLlpIc5g9ewhE-15" edge="1">
          <mxGeometry relative="1" as="geometry">
            <mxPoint x="494" y="130" as="sourcePoint" />
            <mxPoint x="450" y="180" as="targetPoint" />
          </mxGeometry>
        </mxCell>
        <mxCell id="-f6vMQ2dLlpIc5g9ewhE-17" value="BirthDate" style="ellipse;whiteSpace=wrap;html=1;align=center;" parent="1" vertex="1">
          <mxGeometry x="720" y="125" width="100" height="40" as="geometry" />
        </mxCell>
        <mxCell id="-f6vMQ2dLlpIc5g9ewhE-18" value="" style="endArrow=none;html=1;rounded=0;" parent="1" source="-f6vMQ2dLlpIc5g9ewhE-10" target="-f6vMQ2dLlpIc5g9ewhE-17" edge="1">
          <mxGeometry relative="1" as="geometry">
            <mxPoint x="666" y="350" as="sourcePoint" />
            <mxPoint x="520" y="400" as="targetPoint" />
          </mxGeometry>
        </mxCell>
        <mxCell id="-f6vMQ2dLlpIc5g9ewhE-19" value="leads" style="shape=rhombus;perimeter=rhombusPerimeter;whiteSpace=wrap;html=1;align=center;" parent="1" vertex="1">
          <mxGeometry x="560" y="397.5" width="120" height="60" as="geometry" />
        </mxCell>
        <mxCell id="-f6vMQ2dLlpIc5g9ewhE-20" value="teaches" style="shape=rhombus;perimeter=rhombusPerimeter;whiteSpace=wrap;html=1;align=center;" parent="1" vertex="1">
          <mxGeometry x="180" y="117.5" width="120" height="60" as="geometry" />
        </mxCell>
        <mxCell id="-f6vMQ2dLlpIc5g9ewhE-22" value="" style="edgeStyle=entityRelationEdgeStyle;fontSize=12;html=1;endArrow=ERoneToMany;rounded=0;" parent="1" source="-f6vMQ2dLlpIc5g9ewhE-20" target="-f6vMQ2dLlpIc5g9ewhE-2" edge="1">
          <mxGeometry width="100" height="100" relative="1" as="geometry">
            <mxPoint x="260" y="330" as="sourcePoint" />
            <mxPoint x="360" y="230" as="targetPoint" />
          </mxGeometry>
        </mxCell>
        <mxCell id="-f6vMQ2dLlpIc5g9ewhE-23" value="" style="edgeStyle=entityRelationEdgeStyle;fontSize=12;html=1;endArrow=ERoneToMany;rounded=0;" parent="1" source="-f6vMQ2dLlpIc5g9ewhE-20" target="-f6vMQ2dLlpIc5g9ewhE-10" edge="1">
          <mxGeometry width="100" height="100" relative="1" as="geometry">
            <mxPoint x="460" y="350" as="sourcePoint" />
            <mxPoint x="560" y="250" as="targetPoint" />
          </mxGeometry>
        </mxCell>
        <mxCell id="-f6vMQ2dLlpIc5g9ewhE-24" value="Grade" style="whiteSpace=wrap;html=1;align=center;" parent="1" vertex="1">
          <mxGeometry x="320" y="410" width="160" height="35" as="geometry" />
        </mxCell>
        <mxCell id="-f6vMQ2dLlpIc5g9ewhE-25" value="Name" style="ellipse;whiteSpace=wrap;html=1;align=center;fontStyle=4;" parent="1" vertex="1">
          <mxGeometry x="350" y="340" width="100" height="40" as="geometry" />
        </mxCell>
        <mxCell id="-f6vMQ2dLlpIc5g9ewhE-26" value="" style="endArrow=none;html=1;rounded=0;" parent="1" source="-f6vMQ2dLlpIc5g9ewhE-24" target="-f6vMQ2dLlpIc5g9ewhE-25" edge="1">
          <mxGeometry relative="1" as="geometry">
            <mxPoint x="330" y="520" as="sourcePoint" />
            <mxPoint x="490" y="520" as="targetPoint" />
          </mxGeometry>
        </mxCell>
        <mxCell id="-f6vMQ2dLlpIc5g9ewhE-28" value="" style="edgeStyle=orthogonalEdgeStyle;fontSize=12;html=1;endArrow=ERmandOne;rounded=0;" parent="1" source="-f6vMQ2dLlpIc5g9ewhE-19" target="-f6vMQ2dLlpIc5g9ewhE-10" edge="1">
          <mxGeometry width="100" height="100" relative="1" as="geometry">
            <mxPoint x="540" y="520" as="sourcePoint" />
            <mxPoint x="640" y="420" as="targetPoint" />
          </mxGeometry>
        </mxCell>
        <mxCell id="-f6vMQ2dLlpIc5g9ewhE-29" value="" style="edgeStyle=entityRelationEdgeStyle;fontSize=12;html=1;endArrow=ERzeroToMany;rounded=0;endFill=0;" parent="1" source="-f6vMQ2dLlpIc5g9ewhE-19" target="-f6vMQ2dLlpIc5g9ewhE-24" edge="1">
          <mxGeometry width="100" height="100" relative="1" as="geometry">
            <mxPoint x="440" y="600" as="sourcePoint" />
            <mxPoint x="540" y="500" as="targetPoint" />
          </mxGeometry>
        </mxCell>
        <mxCell id="-f6vMQ2dLlpIc5g9ewhE-35" value="Student" style="whiteSpace=wrap;html=1;align=center;" parent="1" vertex="1">
          <mxGeometry x="30" y="282.5" width="160" height="35" as="geometry" />
        </mxCell>
        <mxCell id="-f6vMQ2dLlpIc5g9ewhE-36" value="" style="endArrow=none;html=1;rounded=0;" parent="1" source="-f6vMQ2dLlpIc5g9ewhE-35" target="-f6vMQ2dLlpIc5g9ewhE-42" edge="1">
          <mxGeometry relative="1" as="geometry">
            <mxPoint x="63.5" y="277" as="sourcePoint" />
            <mxPoint x="106.5" y="235" as="targetPoint" />
          </mxGeometry>
        </mxCell>
        <mxCell id="-f6vMQ2dLlpIc5g9ewhE-37" value="LName" style="ellipse;whiteSpace=wrap;html=1;align=center;" parent="1" vertex="1">
          <mxGeometry x="45" y="210" width="100" height="40" as="geometry" />
        </mxCell>
        <mxCell id="-f6vMQ2dLlpIc5g9ewhE-38" value="" style="endArrow=none;html=1;rounded=0;" parent="1" source="-f6vMQ2dLlpIc5g9ewhE-35" target="-f6vMQ2dLlpIc5g9ewhE-37" edge="1">
          <mxGeometry relative="1" as="geometry">
            <mxPoint x="-75" y="335" as="sourcePoint" />
            <mxPoint x="85" y="335" as="targetPoint" />
          </mxGeometry>
        </mxCell>
        <mxCell id="-f6vMQ2dLlpIc5g9ewhE-39" value="" style="endArrow=none;html=1;rounded=0;" parent="1" source="-f6vMQ2dLlpIc5g9ewhE-35" target="-f6vMQ2dLlpIc5g9ewhE-41" edge="1">
          <mxGeometry relative="1" as="geometry">
            <mxPoint x="-1" y="285" as="sourcePoint" />
            <mxPoint x="-45" y="335" as="targetPoint" />
          </mxGeometry>
        </mxCell>
        <mxCell id="-f6vMQ2dLlpIc5g9ewhE-40" value="" style="endArrow=none;html=1;rounded=0;" parent="1" source="-f6vMQ2dLlpIc5g9ewhE-35" target="-f6vMQ2dLlpIc5g9ewhE-43" edge="1">
          <mxGeometry relative="1" as="geometry">
            <mxPoint x="171" y="505" as="sourcePoint" />
            <mxPoint x="25" y="555" as="targetPoint" />
          </mxGeometry>
        </mxCell>
        <mxCell id="-f6vMQ2dLlpIc5g9ewhE-41" value="FName" style="ellipse;whiteSpace=wrap;html=1;align=center;" parent="1" vertex="1">
          <mxGeometry x="-95" y="210" width="100" height="40" as="geometry" />
        </mxCell>
        <mxCell id="-f6vMQ2dLlpIc5g9ewhE-42" value="Id" style="ellipse;whiteSpace=wrap;html=1;align=center;fontStyle=4;" parent="1" vertex="1">
          <mxGeometry x="175" y="210" width="100" height="40" as="geometry" />
        </mxCell>
        <mxCell id="-f6vMQ2dLlpIc5g9ewhE-43" value="BirthDate" style="ellipse;whiteSpace=wrap;html=1;align=center;" parent="1" vertex="1">
          <mxGeometry x="-100" y="277.5" width="100" height="40" as="geometry" />
        </mxCell>
        <mxCell id="-f6vMQ2dLlpIc5g9ewhE-47" value="isMember" style="shape=rhombus;perimeter=rhombusPerimeter;whiteSpace=wrap;html=1;align=center;" parent="1" vertex="1">
          <mxGeometry x="50" y="397.5" width="120" height="60" as="geometry" />
        </mxCell>
        <mxCell id="-f6vMQ2dLlpIc5g9ewhE-48" value="" style="edgeStyle=entityRelationEdgeStyle;fontSize=12;html=1;endArrow=ERzeroToOne;rounded=0;endFill=0;" parent="1" source="-f6vMQ2dLlpIc5g9ewhE-47" target="-f6vMQ2dLlpIc5g9ewhE-24" edge="1">
          <mxGeometry width="100" height="100" relative="1" as="geometry">
            <mxPoint x="160" y="520" as="sourcePoint" />
            <mxPoint x="260" y="420" as="targetPoint" />
          </mxGeometry>
        </mxCell>
        <mxCell id="-f6vMQ2dLlpIc5g9ewhE-49" value="" style="edgeStyle=orthogonalEdgeStyle;fontSize=12;html=1;endArrow=ERoneToMany;rounded=0;" parent="1" source="-f6vMQ2dLlpIc5g9ewhE-47" target="-f6vMQ2dLlpIc5g9ewhE-35" edge="1">
          <mxGeometry width="100" height="100" relative="1" as="geometry">
            <mxPoint x="20" y="557.5" as="sourcePoint" />
            <mxPoint x="120" y="457.5" as="targetPoint" />
          </mxGeometry>
        </mxCell>
        <mxCell id="4SAAgnXIkXVOi4-Cy0dC-1" value="Course" style="whiteSpace=wrap;html=1;align=center;" vertex="1" parent="1">
          <mxGeometry x="320" y="750" width="160" height="35" as="geometry" />
        </mxCell>
        <mxCell id="4SAAgnXIkXVOi4-Cy0dC-4" value="" style="endArrow=none;html=1;rounded=0;" edge="1" target="4SAAgnXIkXVOi4-Cy0dC-5" parent="1" source="4SAAgnXIkXVOi4-Cy0dC-1">
          <mxGeometry relative="1" as="geometry">
            <mxPoint x="340" y="710" as="sourcePoint" />
            <mxPoint x="430" y="820" as="targetPoint" />
          </mxGeometry>
        </mxCell>
        <mxCell id="4SAAgnXIkXVOi4-Cy0dC-5" value="Name" style="ellipse;whiteSpace=wrap;html=1;align=center;fontStyle=4;" vertex="1" parent="1">
          <mxGeometry x="200" y="810" width="100" height="40" as="geometry" />
        </mxCell>
        <mxCell id="4SAAgnXIkXVOi4-Cy0dC-6" value="" style="edgeStyle=orthogonalEdgeStyle;fontSize=12;html=1;endArrow=ERoneToMany;rounded=0;" edge="1" parent="1" source="-f6vMQ2dLlpIc5g9ewhE-47" target="4SAAgnXIkXVOi4-Cy0dC-1">
          <mxGeometry width="100" height="100" relative="1" as="geometry">
            <mxPoint x="90" y="850" as="sourcePoint" />
            <mxPoint x="190" y="750" as="targetPoint" />
            <Array as="points">
              <mxPoint y="428" />
              <mxPoint y="768" />
            </Array>
          </mxGeometry>
        </mxCell>
        <mxCell id="4SAAgnXIkXVOi4-Cy0dC-7" value="" style="edgeStyle=orthogonalEdgeStyle;fontSize=12;html=1;endArrow=ERoneToMany;rounded=0;" edge="1" parent="1" source="-f6vMQ2dLlpIc5g9ewhE-19" target="4SAAgnXIkXVOi4-Cy0dC-1">
          <mxGeometry width="100" height="100" relative="1" as="geometry">
            <mxPoint x="400" y="685" as="sourcePoint" />
            <mxPoint x="500" y="585" as="targetPoint" />
            <Array as="points">
              <mxPoint x="620" y="768" />
            </Array>
          </mxGeometry>
        </mxCell>
        <mxCell id="4SAAgnXIkXVOi4-Cy0dC-8" value="has" style="shape=rhombus;perimeter=rhombusPerimeter;whiteSpace=wrap;html=1;align=center;" vertex="1" parent="1">
          <mxGeometry x="-200" y="870" width="120" height="60" as="geometry" />
        </mxCell>
        <mxCell id="4SAAgnXIkXVOi4-Cy0dC-9" value="" style="edgeStyle=orthogonalEdgeStyle;fontSize=12;html=1;endArrow=ERoneToMany;rounded=0;" edge="1" parent="1" source="4SAAgnXIkXVOi4-Cy0dC-8" target="4SAAgnXIkXVOi4-Cy0dC-1">
          <mxGeometry width="100" height="100" relative="1" as="geometry">
            <mxPoint x="50" y="990" as="sourcePoint" />
            <mxPoint x="150" y="890" as="targetPoint" />
          </mxGeometry>
        </mxCell>
        <mxCell id="4SAAgnXIkXVOi4-Cy0dC-10" value="" style="edgeStyle=orthogonalEdgeStyle;fontSize=12;html=1;endArrow=ERmandOne;rounded=0;" edge="1" parent="1" source="4SAAgnXIkXVOi4-Cy0dC-8" target="-f6vMQ2dLlpIc5g9ewhE-2">
          <mxGeometry width="100" height="100" relative="1" as="geometry">
            <mxPoint x="-160" y="840" as="sourcePoint" />
            <mxPoint x="-210" y="470" as="targetPoint" />
          </mxGeometry>
        </mxCell>
        <mxCell id="4SAAgnXIkXVOi4-Cy0dC-11" value="Lesson" style="shape=ext;margin=3;double=1;whiteSpace=wrap;html=1;align=center;" vertex="1" parent="1">
          <mxGeometry x="325" y="550" width="150" height="40" as="geometry" />
        </mxCell>
        <mxCell id="4SAAgnXIkXVOi4-Cy0dC-12" value="has" style="shape=rhombus;double=1;perimeter=rhombusPerimeter;whiteSpace=wrap;html=1;align=center;" vertex="1" parent="1">
          <mxGeometry x="340" y="640" width="120" height="60" as="geometry" />
        </mxCell>
        <mxCell id="4SAAgnXIkXVOi4-Cy0dC-13" value="" style="edgeStyle=orthogonalEdgeStyle;fontSize=12;html=1;endArrow=ERoneToMany;rounded=0;" edge="1" parent="1" source="4SAAgnXIkXVOi4-Cy0dC-12" target="4SAAgnXIkXVOi4-Cy0dC-11">
          <mxGeometry width="100" height="100" relative="1" as="geometry">
            <mxPoint x="130" y="740" as="sourcePoint" />
            <mxPoint x="230" y="640" as="targetPoint" />
          </mxGeometry>
        </mxCell>
        <mxCell id="4SAAgnXIkXVOi4-Cy0dC-14" value="" style="edgeStyle=orthogonalEdgeStyle;fontSize=12;html=1;endArrow=ERmandOne;rounded=0;" edge="1" parent="1" source="4SAAgnXIkXVOi4-Cy0dC-12" target="4SAAgnXIkXVOi4-Cy0dC-1">
          <mxGeometry width="100" height="100" relative="1" as="geometry">
            <mxPoint x="190" y="730" as="sourcePoint" />
            <mxPoint x="290" y="630" as="targetPoint" />
          </mxGeometry>
        </mxCell>
        <mxCell id="4SAAgnXIkXVOi4-Cy0dC-15" value="Time" style="ellipse;whiteSpace=wrap;html=1;align=center;fontStyle=4;" vertex="1" parent="1">
          <mxGeometry x="220" y="490" width="100" height="40" as="geometry" />
        </mxCell>
        <mxCell id="4SAAgnXIkXVOi4-Cy0dC-16" value="" style="endArrow=none;html=1;rounded=0;" edge="1" parent="1" source="4SAAgnXIkXVOi4-Cy0dC-15" target="4SAAgnXIkXVOi4-Cy0dC-11">
          <mxGeometry relative="1" as="geometry">
            <mxPoint x="115" y="669.5" as="sourcePoint" />
            <mxPoint x="280" y="660" as="targetPoint" />
          </mxGeometry>
        </mxCell>
        <mxCell id="4SAAgnXIkXVOi4-Cy0dC-17" value="isMember" style="shape=rhombus;perimeter=rhombusPerimeter;whiteSpace=wrap;html=1;align=center;" vertex="1" parent="1">
          <mxGeometry x="50" y="540" width="120" height="60" as="geometry" />
        </mxCell>
        <mxCell id="4SAAgnXIkXVOi4-Cy0dC-18" value="" style="endArrow=none;html=1;rounded=0;" edge="1" parent="1" source="4SAAgnXIkXVOi4-Cy0dC-17" target="-f6vMQ2dLlpIc5g9ewhE-47">
          <mxGeometry relative="1" as="geometry">
            <mxPoint x="80" y="700" as="sourcePoint" />
            <mxPoint x="240" y="700" as="targetPoint" />
          </mxGeometry>
        </mxCell>
        <mxCell id="4SAAgnXIkXVOi4-Cy0dC-19" value="" style="edgeStyle=entityRelationEdgeStyle;fontSize=12;html=1;endArrow=ERoneToMany;rounded=0;" edge="1" parent="1" source="4SAAgnXIkXVOi4-Cy0dC-17" target="4SAAgnXIkXVOi4-Cy0dC-11">
          <mxGeometry width="100" height="100" relative="1" as="geometry">
            <mxPoint x="105" y="720" as="sourcePoint" />
            <mxPoint x="205" y="620" as="targetPoint" />
          </mxGeometry>
        </mxCell>
        <mxCell id="4SAAgnXIkXVOi4-Cy0dC-20" value="Present" style="ellipse;whiteSpace=wrap;html=1;align=center;" vertex="1" parent="1">
          <mxGeometry x="60" y="620" width="100" height="40" as="geometry" />
        </mxCell>
        <mxCell id="4SAAgnXIkXVOi4-Cy0dC-22" value="" style="endArrow=none;html=1;rounded=0;" edge="1" parent="1" source="4SAAgnXIkXVOi4-Cy0dC-20" target="4SAAgnXIkXVOi4-Cy0dC-17">
          <mxGeometry relative="1" as="geometry">
            <mxPoint x="-30" y="809" as="sourcePoint" />
            <mxPoint x="130" y="809" as="targetPoint" />
          </mxGeometry>
        </mxCell>
        <mxCell id="4SAAgnXIkXVOi4-Cy0dC-23" value="" style="endArrow=none;html=1;rounded=0;" edge="1" source="4SAAgnXIkXVOi4-Cy0dC-24" parent="1" target="4SAAgnXIkXVOi4-Cy0dC-11">
          <mxGeometry relative="1" as="geometry">
            <mxPoint x="235" y="679" as="sourcePoint" />
            <mxPoint x="375" y="470" as="targetPoint" />
          </mxGeometry>
        </mxCell>
        <mxCell id="4SAAgnXIkXVOi4-Cy0dC-24" value="Topic" style="ellipse;whiteSpace=wrap;html=1;align=center;" vertex="1" parent="1">
          <mxGeometry x="355" y="490" width="100" height="40" as="geometry" />
        </mxCell>
        <mxCell id="4SAAgnXIkXVOi4-Cy0dC-26" value="Homework" style="ellipse;shape=doubleEllipse;margin=3;whiteSpace=wrap;html=1;align=center;" vertex="1" parent="1">
          <mxGeometry x="490" y="490" width="100" height="40" as="geometry" />
        </mxCell>
        <mxCell id="4SAAgnXIkXVOi4-Cy0dC-27" value="" style="endArrow=none;html=1;rounded=0;" edge="1" parent="1" source="4SAAgnXIkXVOi4-Cy0dC-11" target="4SAAgnXIkXVOi4-Cy0dC-26">
          <mxGeometry relative="1" as="geometry">
            <mxPoint x="414" y="680" as="sourcePoint" />
            <mxPoint x="574" y="680" as="targetPoint" />
          </mxGeometry>
        </mxCell>
      </root>
    </mxGraphModel>
  </diagram>
</mxfile>
